<mxfile host="app.diagrams.net" modified="2023-05-13T20:57:51.221Z" agent="Mozilla/5.0 (Windows NT 10.0; Win64; x64) AppleWebKit/537.36 (KHTML, like Gecko) Chrome/113.0.0.0 Safari/537.36" etag="t0szZpOJmC_Oiet0za-j" version="21.3.0" type="device">
  <diagram name="Page-1" id="HdOi8-fYX8Ua0YERg1zg">
    <mxGraphModel dx="1500" dy="830" grid="1" gridSize="10" guides="1" tooltips="1" connect="1" arrows="1" fold="1" page="1" pageScale="1" pageWidth="850" pageHeight="1100" math="0" shadow="0">
      <root>
        <mxCell id="0" />
        <mxCell id="1" parent="0" />
        <mxCell id="-7FQIMCkNugepsHbp8UK-1" value="&lt;div style=&quot;text-align: left;&quot;&gt;&lt;span style=&quot;background-color: initial;&quot;&gt;&lt;b&gt;MAIN:&lt;/b&gt;&lt;/span&gt;&lt;/div&gt;&lt;div style=&quot;text-align: left;&quot;&gt;&lt;span style=&quot;background-color: initial;&quot;&gt;1) CREATE QUEUE&lt;/span&gt;&lt;/div&gt;&lt;div style=&quot;text-align: left;&quot;&gt;&lt;span style=&quot;background-color: initial;&quot;&gt;2) CREATE MUTEX&lt;/span&gt;&lt;/div&gt;&lt;div style=&quot;text-align: left;&quot;&gt;&lt;span style=&quot;background-color: initial;&quot;&gt;3) INITIALISE COMPONENTS&lt;/span&gt;&lt;/div&gt;&lt;div style=&quot;text-align: left;&quot;&gt;&lt;span style=&quot;background-color: initial;&quot;&gt;4) ENABLE INTERRUPTS&lt;/span&gt;&lt;/div&gt;&lt;div style=&quot;text-align: left;&quot;&gt;&lt;span style=&quot;background-color: initial;&quot;&gt;5) CREATE BINARY SEMAPHORE&lt;/span&gt;&lt;/div&gt;&lt;div style=&quot;text-align: left;&quot;&gt;&lt;span style=&quot;background-color: initial;&quot;&gt;6) CREATE FOUR TASKS:&lt;/span&gt;&lt;/div&gt;" style="rounded=0;whiteSpace=wrap;html=1;fillColor=#f5f5f5;strokeColor=#666666;fontColor=#333333;" vertex="1" parent="1">
          <mxGeometry x="30" y="130" width="260" height="150" as="geometry" />
        </mxCell>
        <mxCell id="-7FQIMCkNugepsHbp8UK-15" style="edgeStyle=orthogonalEdgeStyle;rounded=0;orthogonalLoop=1;jettySize=auto;html=1;exitX=0.5;exitY=1;exitDx=0;exitDy=0;" edge="1" parent="1" source="-7FQIMCkNugepsHbp8UK-2" target="-7FQIMCkNugepsHbp8UK-3">
          <mxGeometry relative="1" as="geometry" />
        </mxCell>
        <mxCell id="-7FQIMCkNugepsHbp8UK-2" value="&lt;b&gt;JAM TASK: PRIORITY: 5&lt;/b&gt;" style="ellipse;whiteSpace=wrap;html=1;fillColor=#f8cecc;strokeColor=#b85450;" vertex="1" parent="1">
          <mxGeometry x="425" y="30" width="335" height="200" as="geometry" />
        </mxCell>
        <mxCell id="-7FQIMCkNugepsHbp8UK-18" style="edgeStyle=orthogonalEdgeStyle;rounded=0;orthogonalLoop=1;jettySize=auto;html=1;exitX=0.5;exitY=1;exitDx=0;exitDy=0;entryX=0;entryY=0.5;entryDx=0;entryDy=0;" edge="1" parent="1" source="-7FQIMCkNugepsHbp8UK-3" target="-7FQIMCkNugepsHbp8UK-5">
          <mxGeometry relative="1" as="geometry" />
        </mxCell>
        <mxCell id="-7FQIMCkNugepsHbp8UK-35" style="edgeStyle=orthogonalEdgeStyle;rounded=0;orthogonalLoop=1;jettySize=auto;html=1;exitX=1;exitY=0.5;exitDx=0;exitDy=0;entryX=0;entryY=0.5;entryDx=0;entryDy=0;" edge="1" parent="1" source="-7FQIMCkNugepsHbp8UK-3" target="-7FQIMCkNugepsHbp8UK-4">
          <mxGeometry relative="1" as="geometry" />
        </mxCell>
        <mxCell id="-7FQIMCkNugepsHbp8UK-3" value="&lt;b&gt;RECEIVE QUEUE: PRIORITY: 3&lt;/b&gt;" style="ellipse;whiteSpace=wrap;html=1;fillColor=#f8cecc;strokeColor=#b85450;" vertex="1" parent="1">
          <mxGeometry x="30" y="340" width="335" height="200" as="geometry" />
        </mxCell>
        <mxCell id="-7FQIMCkNugepsHbp8UK-40" style="edgeStyle=orthogonalEdgeStyle;rounded=0;orthogonalLoop=1;jettySize=auto;html=1;exitX=0;exitY=0;exitDx=0;exitDy=0;entryX=0.922;entryY=0.244;entryDx=0;entryDy=0;entryPerimeter=0;" edge="1" parent="1" source="-7FQIMCkNugepsHbp8UK-4" target="-7FQIMCkNugepsHbp8UK-3">
          <mxGeometry relative="1" as="geometry" />
        </mxCell>
        <mxCell id="-7FQIMCkNugepsHbp8UK-45" style="edgeStyle=orthogonalEdgeStyle;rounded=0;orthogonalLoop=1;jettySize=auto;html=1;exitX=0.5;exitY=0;exitDx=0;exitDy=0;entryX=1;entryY=0.5;entryDx=0;entryDy=0;" edge="1" parent="1" source="-7FQIMCkNugepsHbp8UK-4" target="-7FQIMCkNugepsHbp8UK-2">
          <mxGeometry relative="1" as="geometry" />
        </mxCell>
        <mxCell id="-7FQIMCkNugepsHbp8UK-4" value="&lt;b&gt;PASSENGER : PRIORITY : 1&lt;/b&gt;" style="ellipse;whiteSpace=wrap;html=1;fillColor=#f8cecc;strokeColor=#b85450;" vertex="1" parent="1">
          <mxGeometry x="850" y="360" width="335" height="200" as="geometry" />
        </mxCell>
        <mxCell id="-7FQIMCkNugepsHbp8UK-27" style="edgeStyle=orthogonalEdgeStyle;rounded=0;orthogonalLoop=1;jettySize=auto;html=1;exitX=0;exitY=0;exitDx=0;exitDy=0;entryX=0.601;entryY=0.999;entryDx=0;entryDy=0;entryPerimeter=0;" edge="1" parent="1" source="-7FQIMCkNugepsHbp8UK-5" target="-7FQIMCkNugepsHbp8UK-3">
          <mxGeometry relative="1" as="geometry" />
        </mxCell>
        <mxCell id="-7FQIMCkNugepsHbp8UK-31" style="edgeStyle=orthogonalEdgeStyle;rounded=0;orthogonalLoop=1;jettySize=auto;html=1;exitX=0.5;exitY=0;exitDx=0;exitDy=0;entryX=0.572;entryY=0.989;entryDx=0;entryDy=0;entryPerimeter=0;" edge="1" parent="1" source="-7FQIMCkNugepsHbp8UK-5" target="-7FQIMCkNugepsHbp8UK-2">
          <mxGeometry relative="1" as="geometry">
            <Array as="points">
              <mxPoint x="570" y="670" />
              <mxPoint x="570" y="450" />
              <mxPoint x="617" y="450" />
            </Array>
          </mxGeometry>
        </mxCell>
        <mxCell id="-7FQIMCkNugepsHbp8UK-5" value="&lt;b&gt;DRIVER: PRIORITY:&amp;nbsp; 1&lt;/b&gt;" style="ellipse;whiteSpace=wrap;html=1;fillColor=#f8cecc;strokeColor=#b85450;" vertex="1" parent="1">
          <mxGeometry x="400" y="670" width="335" height="200" as="geometry" />
        </mxCell>
        <mxCell id="-7FQIMCkNugepsHbp8UK-6" value="TAKE SEMAPHORE" style="ellipse;whiteSpace=wrap;html=1;" vertex="1" parent="1">
          <mxGeometry x="425" y="130" width="120" height="80" as="geometry" />
        </mxCell>
        <mxCell id="-7FQIMCkNugepsHbp8UK-7" value="TAKE MUTEX" style="ellipse;whiteSpace=wrap;html=1;" vertex="1" parent="1">
          <mxGeometry x="390" y="790" width="120" height="80" as="geometry" />
        </mxCell>
        <mxCell id="-7FQIMCkNugepsHbp8UK-8" value="GIVE MUTEX" style="ellipse;whiteSpace=wrap;html=1;" vertex="1" parent="1">
          <mxGeometry x="620" y="790" width="120" height="80" as="geometry" />
        </mxCell>
        <mxCell id="-7FQIMCkNugepsHbp8UK-9" value="TAKE MUTEX" style="ellipse;whiteSpace=wrap;html=1;" vertex="1" parent="1">
          <mxGeometry x="840" y="480" width="120" height="80" as="geometry" />
        </mxCell>
        <mxCell id="-7FQIMCkNugepsHbp8UK-10" value="GIVE MUTEX" style="ellipse;whiteSpace=wrap;html=1;" vertex="1" parent="1">
          <mxGeometry x="1090" y="480" width="120" height="80" as="geometry" />
        </mxCell>
        <mxCell id="-7FQIMCkNugepsHbp8UK-11" value="" style="endArrow=classic;html=1;rounded=0;exitX=1;exitY=0.5;exitDx=0;exitDy=0;entryX=0;entryY=0.5;entryDx=0;entryDy=0;" edge="1" parent="1" source="-7FQIMCkNugepsHbp8UK-1" target="-7FQIMCkNugepsHbp8UK-2">
          <mxGeometry width="50" height="50" relative="1" as="geometry">
            <mxPoint x="500" y="510" as="sourcePoint" />
            <mxPoint x="550" y="460" as="targetPoint" />
          </mxGeometry>
        </mxCell>
        <mxCell id="-7FQIMCkNugepsHbp8UK-12" value="FIRST TASK CREATED" style="text;html=1;strokeColor=none;fillColor=none;align=center;verticalAlign=middle;whiteSpace=wrap;rounded=0;" vertex="1" parent="1">
          <mxGeometry x="310" y="120" width="80" height="30" as="geometry" />
        </mxCell>
        <mxCell id="-7FQIMCkNugepsHbp8UK-14" value="INITIALLY NULL: BLOCK" style="text;html=1;strokeColor=none;fillColor=none;align=center;verticalAlign=middle;whiteSpace=wrap;rounded=0;" vertex="1" parent="1">
          <mxGeometry x="330" y="50" width="130" height="30" as="geometry" />
        </mxCell>
        <mxCell id="-7FQIMCkNugepsHbp8UK-16" value="SECOND TASK CREATED" style="text;html=1;strokeColor=none;fillColor=none;align=center;verticalAlign=middle;whiteSpace=wrap;rounded=0;" vertex="1" parent="1">
          <mxGeometry x="120" y="300" width="80" height="30" as="geometry" />
        </mxCell>
        <mxCell id="-7FQIMCkNugepsHbp8UK-17" value="QUEUE IS EMPTY: BLOCK" style="text;html=1;strokeColor=none;fillColor=none;align=center;verticalAlign=middle;whiteSpace=wrap;rounded=0;" vertex="1" parent="1">
          <mxGeometry x="20" y="350" width="130" height="30" as="geometry" />
        </mxCell>
        <mxCell id="-7FQIMCkNugepsHbp8UK-19" value="THIRD TASK CREATED" style="text;html=1;strokeColor=none;fillColor=none;align=center;verticalAlign=middle;whiteSpace=wrap;rounded=0;" vertex="1" parent="1">
          <mxGeometry x="120" y="710" width="80" height="30" as="geometry" />
        </mxCell>
        <mxCell id="-7FQIMCkNugepsHbp8UK-20" value="TAKE MUTEX AND ALLOW FOR BUTTON PRESS" style="text;html=1;strokeColor=none;fillColor=none;align=center;verticalAlign=middle;whiteSpace=wrap;rounded=0;" vertex="1" parent="1">
          <mxGeometry x="285" y="790" width="130" height="30" as="geometry" />
        </mxCell>
        <mxCell id="-7FQIMCkNugepsHbp8UK-21" value="" style="rounded=0;whiteSpace=wrap;html=1;" vertex="1" parent="1">
          <mxGeometry x="890" y="60" width="70" height="60" as="geometry" />
        </mxCell>
        <mxCell id="-7FQIMCkNugepsHbp8UK-23" value="" style="rounded=0;whiteSpace=wrap;html=1;" vertex="1" parent="1">
          <mxGeometry x="960" y="60" width="70" height="60" as="geometry" />
        </mxCell>
        <mxCell id="-7FQIMCkNugepsHbp8UK-24" value="QUEUE" style="text;html=1;strokeColor=none;fillColor=none;align=center;verticalAlign=middle;whiteSpace=wrap;rounded=0;" vertex="1" parent="1">
          <mxGeometry x="890" y="30" width="135" height="30" as="geometry" />
        </mxCell>
        <mxCell id="-7FQIMCkNugepsHbp8UK-25" value="" style="rounded=0;whiteSpace=wrap;html=1;fillColor=#dae8fc;strokeColor=#6c8ebf;" vertex="1" parent="1">
          <mxGeometry x="320" y="830" width="70" height="60" as="geometry" />
        </mxCell>
        <mxCell id="-7FQIMCkNugepsHbp8UK-26" value="FILL QUEUE" style="text;html=1;strokeColor=none;fillColor=none;align=center;verticalAlign=middle;whiteSpace=wrap;rounded=0;" vertex="1" parent="1">
          <mxGeometry x="380" y="890" width="130" height="30" as="geometry" />
        </mxCell>
        <mxCell id="-7FQIMCkNugepsHbp8UK-28" value="RECEIVE TO CLOSE/OPEN/LOCK WINDOW" style="text;html=1;strokeColor=none;fillColor=none;align=center;verticalAlign=middle;whiteSpace=wrap;rounded=0;" vertex="1" parent="1">
          <mxGeometry x="260" y="710" width="130" height="30" as="geometry" />
        </mxCell>
        <mxCell id="-7FQIMCkNugepsHbp8UK-29" value="BLOCK RECEIVER AND GIVE MUTEX: RESOURCE IS AVAILABLE" style="text;html=1;strokeColor=none;fillColor=none;align=center;verticalAlign=middle;whiteSpace=wrap;rounded=0;" vertex="1" parent="1">
          <mxGeometry x="450" y="700" width="130" height="30" as="geometry" />
        </mxCell>
        <mxCell id="-7FQIMCkNugepsHbp8UK-30" value="" style="rounded=0;whiteSpace=wrap;html=1;" vertex="1" parent="1">
          <mxGeometry x="240" y="540" width="70" height="60" as="geometry" />
        </mxCell>
        <mxCell id="-7FQIMCkNugepsHbp8UK-32" value="OBSTACLE" style="text;html=1;strokeColor=none;fillColor=none;align=center;verticalAlign=middle;whiteSpace=wrap;rounded=0;" vertex="1" parent="1">
          <mxGeometry x="490" y="490" width="80" height="30" as="geometry" />
        </mxCell>
        <mxCell id="-7FQIMCkNugepsHbp8UK-33" value="TAKE SEMAPHORE: TAKE APPROPRIATE ACTION WHILE OPEN/CLOSE WINDWS" style="text;html=1;strokeColor=none;fillColor=none;align=center;verticalAlign=middle;whiteSpace=wrap;rounded=0;" vertex="1" parent="1">
          <mxGeometry x="605" y="210" width="130" height="30" as="geometry" />
        </mxCell>
        <mxCell id="-7FQIMCkNugepsHbp8UK-36" value="FOURTH TASK CREATED" style="text;html=1;strokeColor=none;fillColor=none;align=center;verticalAlign=middle;whiteSpace=wrap;rounded=0;" vertex="1" parent="1">
          <mxGeometry x="730" y="425" width="80" height="30" as="geometry" />
        </mxCell>
        <mxCell id="-7FQIMCkNugepsHbp8UK-37" value="TAKE MUTEX AND ALLOW FOR BUTTON PRESS" style="text;html=1;strokeColor=none;fillColor=none;align=center;verticalAlign=middle;whiteSpace=wrap;rounded=0;" vertex="1" parent="1">
          <mxGeometry x="750" y="560" width="130" height="30" as="geometry" />
        </mxCell>
        <mxCell id="-7FQIMCkNugepsHbp8UK-38" value="" style="rounded=0;whiteSpace=wrap;html=1;fillColor=#dae8fc;strokeColor=#6c8ebf;" vertex="1" parent="1">
          <mxGeometry x="880" y="590" width="70" height="60" as="geometry" />
        </mxCell>
        <mxCell id="-7FQIMCkNugepsHbp8UK-39" value="FILL QUEUE" style="text;html=1;strokeColor=none;fillColor=none;align=center;verticalAlign=middle;whiteSpace=wrap;rounded=0;" vertex="1" parent="1">
          <mxGeometry x="930" y="590" width="130" height="30" as="geometry" />
        </mxCell>
        <mxCell id="-7FQIMCkNugepsHbp8UK-41" value="RECEIVE TO CLOSE/OPEN/LOCK WINDOW" style="text;html=1;strokeColor=none;fillColor=none;align=center;verticalAlign=middle;whiteSpace=wrap;rounded=0;" vertex="1" parent="1">
          <mxGeometry x="705" y="350" width="130" height="30" as="geometry" />
        </mxCell>
        <mxCell id="-7FQIMCkNugepsHbp8UK-42" value="" style="rounded=0;whiteSpace=wrap;html=1;" vertex="1" parent="1">
          <mxGeometry x="345" y="320" width="70" height="60" as="geometry" />
        </mxCell>
        <mxCell id="-7FQIMCkNugepsHbp8UK-43" value="BLOCK RECEIVER AND GIVE MUTEX: RESOURCE IS AVAILABLE" style="text;html=1;strokeColor=none;fillColor=none;align=center;verticalAlign=middle;whiteSpace=wrap;rounded=0;" vertex="1" parent="1">
          <mxGeometry x="910" y="380" width="130" height="30" as="geometry" />
        </mxCell>
        <mxCell id="-7FQIMCkNugepsHbp8UK-44" value="&lt;b&gt;JAM CANNOT WORK WITHOUT PASSENGER/DRIVER&lt;/b&gt;" style="text;html=1;strokeColor=none;fillColor=none;align=center;verticalAlign=middle;whiteSpace=wrap;rounded=0;" vertex="1" parent="1">
          <mxGeometry x="490" y="75" width="220" height="30" as="geometry" />
        </mxCell>
        <mxCell id="-7FQIMCkNugepsHbp8UK-47" value="TAKE SEMAPHORE: TAKE APPROPRIATE ACTION WHILE OPEN/CLOSE WINDWS" style="text;html=1;strokeColor=none;fillColor=none;align=center;verticalAlign=middle;whiteSpace=wrap;rounded=0;" vertex="1" parent="1">
          <mxGeometry x="760" y="155" width="130" height="30" as="geometry" />
        </mxCell>
      </root>
    </mxGraphModel>
  </diagram>
</mxfile>
